<svg id="visual" viewBox="0 0 900 600" width="900" height="600" xmlns="http://www.w3.org/2000/svg" xmlns:xlink="http://www.w3.org/1999/xlink" version="1.1"><rect x="0" y="0" width="900" height="600" fill="#002233"></rect><path d="M214 0L210.8 14.3C207.7 28.7 201.3 57.3 194.5 85.8C187.7 114.3 180.3 142.7 173.7 171.2C167 199.7 161 228.3 167 257C173 285.7 191 314.3 190.3 343C189.7 371.7 170.3 400.3 166.2 428.8C162 457.3 173 485.7 179.3 514.2C185.7 542.7 187.3 571.3 188.2 585.7L189 600L0 600L0 585.7C0 571.3 0 542.7 0 514.2C0 485.7 0 457.3 0 428.8C0 400.3 0 371.7 0 343C0 314.3 0 285.7 0 257C0 228.3 0 199.7 0 171.2C0 142.7 0 114.3 0 85.8C0 57.3 0 28.7 0 14.3L0 0Z" fill="#0066FF" stroke-linecap="round" stroke-linejoin="miter"></path></svg>