<svg id="visual" viewBox="0 0 900 600" width="900" height="600" xmlns="http://www.w3.org/2000/svg" xmlns:xlink="http://www.w3.org/1999/xlink" version="1.1"><path d="M0 25L82 55L164 55L245 61L327 61L409 43L491 49L573 25L655 25L736 31L818 19L900 19L900 0L818 0L736 0L655 0L573 0L491 0L409 0L327 0L245 0L164 0L82 0L0 0Z" fill="#3ab6ec"></path><path d="M0 61L82 109L164 115L245 151L327 115L409 127L491 115L573 127L655 73L736 97L818 61L900 73L900 17L818 17L736 29L655 23L573 23L491 47L409 41L327 59L245 59L164 53L82 53L0 23Z" fill="#21b0dc"></path><path d="M0 121L82 187L164 229L245 205L327 157L409 169L491 193L573 175L655 193L736 157L818 115L900 169L900 71L818 59L736 95L655 71L573 125L491 113L409 125L327 113L245 149L164 113L82 107L0 59Z" fill="#06aacb"></path><path d="M0 247L82 349L164 337L245 301L327 265L409 361L491 343L573 313L655 319L736 295L818 295L900 283L900 167L818 113L736 155L655 191L573 173L491 191L409 167L327 155L245 203L164 227L82 185L0 119Z" fill="#00a3ba"></path><path d="M0 421L82 463L164 451L245 457L327 487L409 457L491 427L573 469L655 427L736 445L818 463L900 445L900 281L818 293L736 293L655 317L573 311L491 341L409 359L327 263L245 299L164 335L82 347L0 245Z" fill="#009ba8"></path><path d="M0 469L82 511L164 487L245 511L327 523L409 511L491 493L573 505L655 493L736 505L818 487L900 517L900 443L818 461L736 443L655 425L573 467L491 425L409 455L327 485L245 455L164 449L82 461L0 419Z" fill="#009397"></path><path d="M0 523L82 535L164 535L245 553L327 565L409 535L491 535L573 547L655 541L736 547L818 517L900 565L900 515L818 485L736 503L655 491L573 503L491 491L409 509L327 521L245 509L164 485L82 509L0 467Z" fill="#008b85"></path><path d="M0 601L82 601L164 601L245 601L327 601L409 601L491 601L573 601L655 601L736 601L818 601L900 601L900 563L818 515L736 545L655 539L573 545L491 533L409 533L327 563L245 551L164 533L82 533L0 521Z" fill="#038373"></path></svg>