<svg id="visual" viewBox="0 0 960 540" width="960" height="540" xmlns="http://www.w3.org/2000/svg" xmlns:xlink="http://www.w3.org/1999/xlink" version="1.1"><path d="M0 93L80 152L160 125L240 174L320 131L400 98L480 87L560 66L640 93L720 71L800 131L880 71L960 114L960 0L880 0L800 0L720 0L640 0L560 0L480 0L400 0L320 0L240 0L160 0L80 0L0 0Z" fill="#00adcc"></path><path d="M0 147L80 260L160 206L240 217L320 174L400 212L480 131L560 147L640 131L720 163L800 228L880 125L960 195L960 112L880 69L800 129L720 69L640 91L560 64L480 85L400 96L320 129L240 172L160 123L80 150L0 91Z" fill="#0099bb"></path><path d="M0 185L80 320L160 287L240 298L320 249L400 271L480 163L560 217L640 201L720 255L800 309L880 217L960 249L960 193L880 123L800 226L720 161L640 129L560 145L480 129L400 210L320 172L240 215L160 204L80 258L0 145Z" fill="#0086a9"></path><path d="M0 379L80 417L160 422L240 428L320 384L400 395L480 390L560 428L640 406L720 428L800 395L880 417L960 357L960 247L880 215L800 307L720 253L640 199L560 215L480 161L400 269L320 247L240 296L160 285L80 318L0 183Z" fill="#007396"></path><path d="M0 422L80 476L160 455L240 482L320 428L400 455L480 444L560 460L640 444L720 455L800 449L880 482L960 411L960 355L880 415L800 393L720 426L640 404L560 426L480 388L400 393L320 382L240 426L160 420L80 415L0 377Z" fill="#006183"></path><path d="M0 482L80 509L160 503L240 514L320 492L400 482L480 514L560 503L640 509L720 509L800 482L880 509L960 482L960 409L880 480L800 447L720 453L640 442L560 458L480 442L400 453L320 426L240 480L160 453L80 474L0 420Z" fill="#014f70"></path><path d="M0 541L80 541L160 541L240 541L320 541L400 541L480 541L560 541L640 541L720 541L800 541L880 541L960 541L960 480L880 507L800 480L720 507L640 507L560 501L480 512L400 480L320 490L240 512L160 501L80 507L0 480Z" fill="#003e5d"></path></svg>