<svg id="visual" viewBox="0 0 900 600" width="900" height="600" xmlns="http://www.w3.org/2000/svg" xmlns:xlink="http://www.w3.org/1999/xlink" version="1.1"><path d="M0 127L82 67L164 139L245 61L327 67L409 109L491 67L573 133L655 163L736 85L818 61L900 139L900 0L818 0L736 0L655 0L573 0L491 0L409 0L327 0L245 0L164 0L82 0L0 0Z" fill="#87dbff"></path><path d="M0 181L82 121L164 229L245 139L327 169L409 145L491 157L573 199L655 205L736 181L818 151L900 229L900 137L818 59L736 83L655 161L573 131L491 65L409 107L327 65L245 59L164 137L82 65L0 125Z" fill="#5fc6df"></path><path d="M0 367L82 319L164 397L245 295L327 307L409 289L491 283L573 391L655 415L736 307L818 325L900 415L900 227L818 149L736 179L655 203L573 197L491 155L409 143L327 167L245 137L164 227L82 119L0 179Z" fill="#3bb0bc"></path><path d="M0 457L82 379L164 475L245 409L327 421L409 373L491 391L573 463L655 475L736 349L818 373L900 487L900 413L818 323L736 305L655 413L573 389L491 281L409 287L327 305L245 293L164 395L82 317L0 365Z" fill="#1b9a98"></path><path d="M0 601L82 601L164 601L245 601L327 601L409 601L491 601L573 601L655 601L736 601L818 601L900 601L900 485L818 371L736 347L655 473L573 461L491 389L409 371L327 419L245 407L164 473L82 377L0 455Z" fill="#038373"></path></svg>