<?xml version="1.0" standalone="no"?>
<!DOCTYPE svg PUBLIC "-//W3C//DTD SVG 20010904//EN"
 "http://www.w3.org/TR/2001/REC-SVG-20010904/DTD/svg10.dtd">
<svg version="1.0" xmlns="http://www.w3.org/2000/svg"
 width="768.000000pt" height="768.000000pt" viewBox="0 0 768.000000 768.000000"
 preserveAspectRatio="xMidYMid meet">
<metadata>
Created by potrace 1.14, written by Peter Selinger 2001-2017
</metadata>
<g transform="translate(0.000000,768.000000) scale(0.100000,-0.100000)"
fill="#000000" stroke="none">
<path d="M0 3840 l0 -3840 3840 0 3840 0 0 3840 0 3840 -3840 0 -3840 0 0
-3840z m5116 1992 c-10 -75 -54 -218 -92 -298 -41 -87 -120 -177 -183 -208
-25 -13 -77 -32 -116 -42 -64 -17 -115 -19 -630 -20 -491 0 -570 -3 -640 -18
-324 -70 -495 -232 -495 -467 0 -142 78 -254 232 -334 122 -63 136 -87 101
-163 -27 -59 -159 -182 -237 -221 -64 -32 -70 -33 -109 -21 -65 19 -115 48
-164 93 -181 166 -174 441 22 845 102 212 209 362 354 500 254 243 548 372
846 372 50 0 203 -9 340 -21 340 -28 504 -30 573 -6 29 11 58 28 65 38 10 15
24 19 76 19 l64 0 -7 -48z m-546 -817 c0 -3 -11 -27 -24 -53 -37 -73 -83 -219
-95 -302 -14 -98 -31 -324 -31 -422 l0 -77 88 30 c130 46 374 145 443 180 34
17 63 28 66 25 3 -2 -5 -100 -17 -218 -15 -147 -27 -218 -37 -230 -41 -46
-211 -114 -448 -178 -66 -18 -122 -34 -124 -36 -2 -2 -11 -58 -21 -126 -34
-233 -89 -410 -186 -599 -198 -388 -532 -639 -934 -704 -182 -29 -447 -14
-596 34 -291 93 -513 355 -439 517 24 51 193 217 278 273 72 46 137 62 175 42
29 -16 42 -70 42 -181 1 -183 29 -294 98 -385 99 -130 280 -160 444 -73 204
108 351 422 421 897 l13 89 -67 -19 c-94 -26 -199 -69 -329 -134 -60 -30 -110
-52 -110 -49 0 4 23 78 51 165 48 152 53 161 94 196 77 64 180 128 289 179 76
35 107 55 110 69 2 11 12 76 21 145 38 276 105 474 220 655 37 57 169 220 198
244 24 19 407 63 407 46z m585 -2171 c87 -40 230 -39 373 2 29 8 29 -3 -7
-107 -119 -347 -201 -438 -402 -447 -105 -5 -206 15 -299 59 -130 61 -169 95
-141 125 34 35 141 277 191 429 18 55 34 103 37 107 2 4 47 -27 101 -69 53
-42 120 -87 147 -99z"/>
</g>
</svg>
